{"title":"Re-Up: Hisham Abbas &amp; Jayashri - Nari Narain [Sbyky]","uid":10101195,"size":70204016,"categoryP":"video","categoryS":"music_videos","magnet":"?xt=urn:btih:d9753a445a3e9119b594a2c22d5e1bb1e2bf3c37&amp;dn=Re-Up%3A+Hisham+Abbas+%26amp%3B+Jayashri+-+Nari+Narain+%5BSbyky%5D&amp;tr=udp%3A%2F%2Ftracker.openbittorrent.com%3A80&amp;tr=udp%3A%2F%2Fopen.demonii.com%3A1337&amp;tr=udp%3A%2F%2Ftracker.coppersurfer.tk%3A6969&amp;tr=udp%3A%2F%2Fexodus.desync.com%3A6969","seeders":1,"leechers":2,"uploader":"Sbyky","files":1,"time":1399405335,"description":"General\nComplete name                            : Hisham Abbas &amp; Jayashri - Nari Narain [Sbyky].avi\nFormat                                   : AVI\nFormat/Info                              : Audio Video Interleave\nFile size                                : 67.0 MiB\nDuration                                 : 4mn 22s\nOverall bit rate                         : 2 140 Kbps\nWriting application                      : Lavf52.39.1\n\nVideo\nID                                       : 0\nFormat                                   : xvid\nCodec ID                                 : xvid\nDuration                                 : 4mn 22s\nBit rate                                 : 2 064 Kbps\nWidth                                    : 610 pixels\nHeight                                   : 472 pixels\nDisplay aspect ratio                     : 1.292\nFrame rate                               : 25.000 fps\nBits/(Pixel*Frame)                       : 0.287\nStream size                              : 64.5 MiB (96%)\n\nAudio\nID                                       : 1\nFormat                                   : MPEG Audio\nFormat version                           : Version 1\nFormat profile                           : Layer 3\nMode                                     : Joint stereo\nCodec ID                                 : 55\nCodec ID/Hint                            : MP3\nDuration                                 : 4mn 22s\nBit rate mode                            : Constant\nBit rate                                 : 64.0 Kbps\nChannel(s)                               : 2 channels\nSampling rate                            : 44.1 KHz\nCompression mode                         : Lossy\nStream size                              : 2.00 MiB (3%)\nAlignment                                : Aligned on interleaves\nInterleave, duration                     : 26 ms (0.65 video frame)\n\nRe-Up for beaujoulais","torrent":{"xt":"urn:btih:d9753a445a3e9119b594a2c22d5e1bb1e2bf3c37","amp;dn":"Re-Up%3A+Hisham+Abbas+%26amp%3B+Jayashri+-+Nari+Narain+%5BSbyky%5D","amp;tr":["udp%3A%2F%2Ftracker.openbittorrent.com%3A80","udp%3A%2F%2Fopen.demonii.com%3A1337","udp%3A%2F%2Ftracker.coppersurfer.tk%3A6969","udp%3A%2F%2Fexodus.desync.com%3A6969"],"infoHash":"d9753a445a3e9119b594a2c22d5e1bb1e2bf3c37","infoHashBuffer":{"type":"Buffer","data":[217,117,58,68,90,62,145,25,181,148,162,194,45,94,27,177,226,191,60,55]},"announce":[],"urlList":[]}}